<svg id="Layer_1" data-name="Layer 1" xmlns="http://www.w3.org/2000/svg" viewBox="0 0 512 512"><title>language</title><path d="M256,0C114.62,0,0,114.62,0,256S114.62,512,256,512,512,397.38,512,256,397.38,0,256,0ZM479.43,240H393.35q-.15-11.07-1.15-22.1a297.5,297.5,0,0,0-22.64-89.28,485.56,485.56,0,0,0,59.29-15.12A222.89,222.89,0,0,1,479.43,240ZM177.08,129.57A572.76,572.76,0,0,0,240,136.73V240H150.67q.14-9.44,1-18.82C154.74,186.05,164.94,155.14,177.08,129.57ZM272,41.41a317.37,317.37,0,0,1,48.77,61.86q-15.18,1.47-30.65,2-9,.33-18.12.33Zm-32,0v63.25q-23.24-1.42-46.64-4.91c3.75-6.06,7.49-11.62,11.07-16.65A311.69,311.69,0,0,1,240,41.42ZM240,272V375.28q-27,1.56-54.25,5.75-27.81-54.93-33.61-109Zm0,135.33V464A517,517,0,0,1,202.5,411Q221.3,408.49,240,407.33Zm32-1q9.08,0,18.12.33c7.13.25,14.21.68,21.24,1.23A514.31,514.31,0,0,1,272,464Zm19.27-31.65q-9.61-.34-19.27-.35V272h87.86q-5.57,52.19-31.75,105.31Q309.89,375.39,291.27,374.7ZM272,240V137.65q9.64,0,19.27-.35,23.1-.83,45.61-3.61a266.45,266.45,0,0,1,23.45,87.08q.87,9.6,1,19.23ZM403.8,87.69a462,462,0,0,1-48.74,11,342.62,342.62,0,0,0-22.19-35.23c-6.46-9-12.83-17-18.76-23.87A222.8,222.8,0,0,1,403.8,87.69ZM197.89,39.61c-5.93,6.91-12.3,14.89-18.76,23.87A345,345,0,0,0,159.71,93.7q-22.53-4.77-45.14-11.42a222.84,222.84,0,0,1,83.32-42.67Zm-109.69,68q28.3,9.18,56.57,15.56a301,301,0,0,0-25,94.72q-1,11-1.15,22.1H32.57A222.79,222.79,0,0,1,88.2,107.62ZM32.57,272H120q5.43,57.28,33.05,115a635.59,635.59,0,0,0-64.79,17.37A222.79,222.79,0,0,1,32.57,272Zm82,157.72q27-8,54-13.21a526.32,526.32,0,0,0,39.22,58.29,222.89,222.89,0,0,1-93.21-45.08ZM304.22,474.8a520.85,520.85,0,0,0,41.87-62.95,463.08,463.08,0,0,1,57.71,12.46,222.84,222.84,0,0,1-99.58,50.49Zm124.63-76.3a485.58,485.58,0,0,0-67.45-16.58q25.43-55.1,30.65-109.92h87.38a222.89,222.89,0,0,1-50.58,126.5Z" /></svg>